<svg width="55" height="13" viewBox="0 0 55 13" fill="none" xmlns="http://www.w3.org/2000/svg">
<path d="M0 12.4051C0.0953575 11.689 0.207879 10.9766 0.282258 10.2585C0.604567 7.13401 0.917339 4.00949 1.23393 0.88497C1.24918 0.739121 1.28351 0.595143 1.31212 0.428726C1.48376 0.419377 1.63252 0.406288 1.78128 0.406288C4.53902 0.402548 7.29485 0.396939 10.0526 0.398809C12.2191 0.400679 13.4569 1.56746 13.3882 3.69909C13.3348 5.38009 13.1212 7.05735 12.9648 8.73647C12.8523 9.95374 12.7169 11.171 12.5929 12.3864C12.5719 12.5977 12.6044 12.824 12.2611 12.8221C11.2484 12.8127 10.2357 12.8184 9.16004 12.8184C9.23061 12.1284 9.29164 11.4795 9.3622 10.8307C9.58152 8.85988 9.80275 6.88719 10.0259 4.91637C10.0984 4.28062 9.83327 3.96648 9.19056 3.96461C7.61907 3.959 6.04757 3.96274 4.43794 3.96274C4.13661 6.92272 3.83719 9.84716 3.53586 12.8015C2.3458 12.8015 1.1729 12.8015 0 12.8015C0 12.6688 0 12.5379 0 12.4051Z" fill="#18988B"/>
<path d="M45.4022 13.0002C44.3342 12.7384 43.8727 11.9624 43.5008 11.0238C42.1524 7.62251 40.7526 4.23995 39.3737 0.849912C39.3298 0.743331 39.2955 0.634879 39.2383 0.475942C39.408 0.460983 39.5511 0.440415 39.6941 0.438545C40.8613 0.434805 42.0284 0.451634 43.1956 0.427326C43.5446 0.419846 43.6934 0.541387 43.8154 0.849912C44.6317 2.91236 45.4689 4.96919 46.2986 7.02603C46.3729 7.20927 46.4511 7.38878 46.5541 7.63934C46.9374 6.98489 47.2865 6.38841 47.6336 5.79193C48.6024 4.12589 49.5789 2.46359 50.5324 0.790077C50.6869 0.520818 50.8566 0.423586 51.1656 0.427326C52.411 0.442285 53.6582 0.432935 55.0009 0.432935C54.8559 0.683495 54.7625 0.849912 54.6652 1.01446C52.6818 4.37832 50.6793 7.72909 48.7283 11.1098C48.1866 12.0484 47.5401 12.7796 46.4187 12.9965C46.0792 13.0002 45.7417 13.0002 45.4022 13.0002Z" fill="#18988B"/>
<path d="M39.7367 12.8166C38.375 12.8166 37.0591 12.826 35.7451 12.8017C35.6211 12.7998 35.4533 12.6091 35.3904 12.4688C34.9078 11.4142 34.4406 10.3522 33.9867 9.28447C33.8742 9.01708 33.7311 8.91424 33.426 8.91985C32.4667 8.94042 31.5055 8.92733 30.5042 8.92733C30.3879 10.0661 30.2563 11.1618 30.1743 12.2613C30.1457 12.6502 30.0446 12.8054 29.6136 12.7942C28.5341 12.7643 27.4528 12.7848 26.3047 12.7848C26.3848 11.9546 26.4592 11.1412 26.5431 10.3297C26.8673 7.18837 27.2068 4.04889 27.51 0.905674C27.5501 0.490567 27.6836 0.393335 28.086 0.395205C30.6568 0.412033 33.2296 0.342849 35.7985 0.419513C39.0521 0.514875 40.4557 2.37725 40.0858 5.24373C39.916 6.5601 39.3515 7.67827 38.2911 8.52531C38.0546 8.71417 38.0642 8.87124 38.1729 9.11432C38.6649 10.2194 39.1398 11.332 39.6185 12.4426C39.6643 12.5455 39.6872 12.6539 39.7367 12.8166ZM30.9066 5.64574C32.5296 5.64574 34.103 5.66444 35.6726 5.63639C36.3497 5.62518 36.773 5.11471 36.7654 4.44156C36.7597 3.90117 36.363 3.53655 35.6574 3.52533C34.2537 3.50103 32.8481 3.51972 31.4445 3.51224C31.1851 3.51038 31.0916 3.60948 31.0745 3.85817C31.0344 4.43595 30.9677 5.01186 30.9066 5.64574Z" fill="#18988B"/>
<path d="M26.9356 0.459123C26.8307 1.47819 26.7315 2.44677 26.6285 3.46584C26.4187 3.46584 26.2395 3.46584 26.0583 3.46584C23.7563 3.46584 21.4544 3.46584 19.1525 3.46584C17.9167 3.46584 17.6706 3.69396 17.5715 4.97855C20.5294 4.97855 23.4836 4.97855 26.4855 4.97855C26.3768 5.99575 26.2719 6.95872 26.1651 7.95161C23.2014 7.95161 20.2624 7.95161 17.2511 7.95161C17.2511 8.18721 17.2434 8.40973 17.253 8.63224C17.2835 9.35774 17.5066 9.5709 18.2504 9.5709C20.6191 9.57277 22.9897 9.5709 25.3584 9.5709C25.5586 9.5709 25.7589 9.5709 26.0068 9.5709C25.8962 10.6573 25.7932 11.6913 25.6807 12.8001C25.4995 12.8001 25.3221 12.8001 25.1448 12.8001C22.572 12.8001 19.9993 12.8001 17.4265 12.8001C15.0044 12.8001 13.7991 11.7717 13.5264 9.41197C13.3052 7.48228 13.494 5.58064 14.1252 3.7351C14.9053 1.45762 16.3871 0.434814 18.8378 0.434814C21.3591 0.434814 23.8822 0.434814 26.4035 0.434814C26.5522 0.436684 26.7029 0.449773 26.9356 0.459123Z" fill="#18988B"/>
</svg>
